<svg width="32" height="32" viewBox="0 0 32 32" fill="none" xmlns="http://www.w3.org/2000/svg">
<path fill-rule="evenodd" clip-rule="evenodd" d="M9.46775 0.49477C11.1126 0.419049 11.637 0.402222 15.8269 0.402222C20.0169 0.402222 20.5413 0.420451 22.1847 0.49477C23.8282 0.569089 24.95 0.83131 25.9315 1.21132C26.9594 1.59974 27.8919 2.20691 28.6631 2.99217C29.4484 3.76201 30.0542 4.6931 30.4412 5.72235C30.8226 6.70392 31.0834 7.82572 31.1591 9.46635C31.2348 11.114 31.2517 11.6384 31.2517 15.8269C31.2517 20.0169 31.2334 20.5413 31.1591 22.1861C31.0848 23.8268 30.8226 24.9486 30.4412 25.9301C30.0541 26.9595 29.4474 27.8922 28.6631 28.6631C27.8919 29.4484 26.9594 30.0542 25.9315 30.4412C24.95 30.8226 23.8282 31.0834 22.1875 31.1591C20.5413 31.2348 20.0169 31.2517 15.8269 31.2517C11.637 31.2517 11.1126 31.2334 9.46775 31.1591C7.82712 31.0848 6.70533 30.8226 5.72375 30.4412C4.69439 30.0541 3.76176 29.4473 2.99077 28.6631C2.20605 27.8928 1.59878 26.9606 1.21132 25.9315C0.83131 24.95 0.570491 23.8282 0.49477 22.1875C0.419049 20.5399 0.402222 20.0155 0.402222 15.8269C0.402222 11.637 0.420451 11.1126 0.49477 9.46916C0.569089 7.82572 0.83131 6.70392 1.21132 5.72235C1.59935 4.69321 2.20708 3.76104 2.99217 2.99077C3.76206 2.20622 4.69376 1.59896 5.72235 1.21132C6.70392 0.83131 7.82572 0.570491 9.46635 0.49477H9.46775ZM22.0599 3.27122C20.4333 3.1969 19.9454 3.18148 15.8269 3.18148C11.7085 3.18148 11.2206 3.1969 9.59396 3.27122C8.08934 3.33993 7.27324 3.59093 6.72916 3.80267C6.00981 4.08312 5.49519 4.41546 4.95532 4.95532C4.44356 5.45319 4.04972 6.05929 3.80267 6.72916C3.59093 7.27324 3.33993 8.08934 3.27122 9.59396C3.1969 11.2206 3.18148 11.7085 3.18148 15.8269C3.18148 19.9454 3.1969 20.4333 3.27122 22.0599C3.33993 23.5646 3.59093 24.3807 3.80267 24.9247C4.04947 25.5936 4.4435 26.2008 4.95532 26.6986C5.45312 27.2104 6.06029 27.6044 6.72916 27.8512C7.27324 28.063 8.08934 28.314 9.59396 28.3827C11.2206 28.457 11.7071 28.4724 15.8269 28.4724C19.9468 28.4724 20.4333 28.457 22.0599 28.3827C23.5646 28.314 24.3807 28.063 24.9247 27.8512C25.6441 27.5708 26.1587 27.2384 26.6986 26.6986C27.2104 26.2008 27.6044 25.5936 27.8512 24.9247C28.063 24.3807 28.314 23.5646 28.3827 22.0599C28.457 20.4333 28.4724 19.9454 28.4724 15.8269C28.4724 11.7085 28.457 11.2206 28.3827 9.59396C28.314 8.08934 28.063 7.27324 27.8512 6.72916C27.5708 6.00981 27.2384 5.49519 26.6986 4.95532C26.2007 4.4436 25.5946 4.04976 24.9247 3.80267C24.3807 3.59093 23.5646 3.33993 22.0599 3.27122ZM13.8568 20.582C14.9571 21.04 16.1822 21.1018 17.323 20.7569C18.4638 20.4119 19.4495 19.6816 20.1117 18.6907C20.7738 17.6997 21.0714 16.5097 20.9536 15.3237C20.8358 14.1377 20.3099 13.0294 19.4658 12.1881C18.9277 11.6503 18.277 11.2385 17.5606 10.9824C16.8442 10.7262 16.08 10.6321 15.3228 10.7068C14.5657 10.7815 13.8346 11.0231 13.182 11.4143C12.5295 11.8054 11.9718 12.3364 11.5491 12.969C11.1264 13.6015 10.8492 14.3199 10.7375 15.0725C10.6258 15.825 10.6823 16.593 10.903 17.3211C11.1237 18.0491 11.5031 18.7192 12.0138 19.2831C12.5246 19.847 13.154 20.2906 13.8568 20.582ZM10.2208 10.2208C10.957 9.48455 11.831 8.90055 12.7929 8.50211C13.7548 8.10368 14.7858 7.8986 15.8269 7.8986C16.8681 7.8986 17.8991 8.10367 18.861 8.50211C19.8229 8.90055 20.6969 9.48455 21.4331 10.2208C22.1694 10.957 22.7533 11.831 23.1518 12.7929C23.5502 13.7548 23.7553 14.7858 23.7553 15.8269C23.7553 16.8681 23.5502 17.8991 23.1518 18.861C22.7533 19.8229 22.1694 20.6969 21.4331 21.4331C19.9463 22.92 17.9297 23.7553 15.8269 23.7553C13.7242 23.7553 11.7076 22.92 10.2208 21.4331C8.73391 19.9463 7.8986 17.9297 7.8986 15.8269C7.8986 13.7242 8.73391 11.7076 10.2208 10.2208ZM25.5137 9.07933C25.6961 8.90723 25.8422 8.70028 25.9432 8.47072C26.0442 8.24116 26.0981 7.99367 26.1018 7.74289C26.1055 7.49212 26.0588 7.24316 25.9645 7.01075C25.8702 6.77834 25.7302 6.56722 25.5529 6.38987C25.3755 6.21253 25.1644 6.07257 24.932 5.97829C24.6996 5.884 24.4506 5.8373 24.1999 5.84096C23.9491 5.84461 23.7016 5.89855 23.472 5.99957C23.2425 6.10059 23.0355 6.24664 22.8634 6.42908C22.5287 6.78389 22.3455 7.25518 22.3526 7.74289C22.3597 8.23061 22.5566 8.69635 22.9015 9.04125C23.2464 9.38615 23.7122 9.58306 24.1999 9.59017C24.6876 9.59728 25.1589 9.41403 25.5137 9.07933Z" fill="#F8F8F8"/>
</svg>
