<svg width="172" height="26" viewBox="0 0 172 26" fill="none" xmlns="http://www.w3.org/2000/svg">
<path d="M10.944 6.28V25H5.696V6.28H0.288L0.8 2.344H16.064L15.552 6.28H10.944ZM22.007 11.24C22.327 10.1093 22.8603 9.21333 23.607 8.552C24.3537 7.89067 25.2177 7.56 26.199 7.56C27.2017 7.56 28.1083 7.76267 28.919 8.168L27.799 12.04C27.1377 11.848 26.5723 11.752 26.103 11.752C25.271 11.752 24.5137 12.0613 23.831 12.68C23.1697 13.2987 22.839 14.2053 22.839 15.4V25H17.943V12.936L17.591 8.2L21.303 7.72L21.879 11.24H22.007ZM37.4905 13.352C37.4905 12.648 37.3412 12.136 37.0425 11.816C36.7438 11.4747 36.1678 11.304 35.3145 11.304C34.4612 11.304 33.0532 11.6133 31.0905 12.232L29.7145 9.224C30.4398 8.81867 31.4425 8.44533 32.7225 8.104C34.0238 7.74133 35.2932 7.56 36.5305 7.56C37.7892 7.56 38.8345 7.70933 39.6665 8.008C40.5198 8.30667 41.1278 8.75467 41.4905 9.352C41.8745 9.928 42.1198 10.504 42.2265 11.08C42.3545 11.656 42.4185 12.3813 42.4185 13.256V19.272C42.4185 20.0613 42.4932 20.7013 42.6425 21.192C42.8132 21.6827 43.1652 22.216 43.6985 22.792L40.9145 25.384C40.4238 25.1493 39.9438 24.7973 39.4745 24.328C39.0265 23.8587 38.6958 23.4213 38.4825 23.016H38.3545C37.1172 24.5947 35.5492 25.384 33.6505 25.384C30.5785 25.384 29.0425 23.7947 29.0425 20.616C29.0425 18.9307 29.5225 17.672 30.4825 16.84C31.4638 16.008 32.8718 15.432 34.7065 15.112L37.4905 14.632V13.352ZM33.6825 20.104C33.6825 21.1493 34.2372 21.672 35.3465 21.672C36.1998 21.672 36.9252 21.3733 37.5225 20.776V17.768C36.1572 17.96 35.1758 18.2267 34.5785 18.568C33.9812 18.888 33.6825 19.4 33.6825 20.104ZM53.7608 7.688L58.2408 8.2L54.0168 25H48.2888L43.8407 8.168L48.5768 7.688L51.1048 20.648H51.2968L53.7608 7.688ZM66.9845 7.56C69.1178 7.56 70.6858 8.14667 71.6885 9.32C72.5205 10.28 73.0325 11.88 73.2245 14.12C73.2885 15.016 73.3205 16.136 73.3205 17.48L71.0485 17.8H64.4565C64.4565 19.0587 64.6912 20.008 65.1605 20.648C65.6298 21.2667 66.4618 21.576 67.6565 21.576C68.8725 21.576 70.3338 21.2667 72.0405 20.648L73.0325 23.656C71.0058 24.808 68.8938 25.384 66.6965 25.384C61.7258 25.384 59.2405 22.44 59.2405 16.552C59.2405 13.7787 59.8805 11.592 61.1605 9.992C62.4618 8.37067 64.4032 7.56 66.9845 7.56ZM68.0725 12.104C67.8592 11.6133 67.3792 11.368 66.6325 11.368C65.8858 11.368 65.3525 11.6453 65.0325 12.2C64.7125 12.7333 64.5312 13.544 64.4885 14.632H68.3925C68.3925 13.416 68.2858 12.5733 68.0725 12.104ZM80.5563 19.144C80.5563 20.1893 80.6203 20.9573 80.7483 21.448C80.8976 21.9387 81.2496 22.5253 81.8043 23.208L78.2843 25.8C77.2603 24.712 76.5563 23.7627 76.1723 22.952C75.8096 22.12 75.6283 20.8827 75.6283 19.24V1.384L80.5563 0.839998V19.144ZM90.894 2.344H99.086C102.009 2.344 104.025 3.03733 105.134 4.424C106.094 5.66133 106.574 7.24 106.574 9.16C106.574 11.144 105.987 12.8827 104.814 14.376C104.195 15.1867 103.257 15.8373 101.998 16.328C100.761 16.7973 99.2673 17.032 97.518 17.032H96.142V25H90.894V2.344ZM96.142 5.928V13.256H97.87C98.958 13.256 99.7367 12.968 100.206 12.392C100.697 11.816 100.942 10.9093 100.942 9.672C100.942 8.41333 100.739 7.47467 100.334 6.856C99.9287 6.23733 99.1073 5.928 97.87 5.928H96.142ZM116.177 7.56C117.351 7.56 118.375 7.74133 119.249 8.104C120.124 8.46667 120.807 8.936 121.297 9.512C121.809 10.0667 122.215 10.76 122.513 11.592C123.004 12.9573 123.249 14.632 123.249 16.616C123.249 19.6667 122.396 21.9813 120.689 23.56C119.388 24.776 117.596 25.384 115.313 25.384C114.14 25.384 113.116 25.2027 112.241 24.84C111.367 24.4773 110.673 24.0187 110.161 23.464C109.671 22.888 109.265 22.184 108.945 21.352C108.455 20.0293 108.209 18.3547 108.209 16.328C108.209 14.4507 108.583 12.7973 109.329 11.368C110.631 8.82933 112.913 7.56 116.177 7.56ZM118.033 16.552C118.033 14.6107 117.884 13.2667 117.585 12.52C117.287 11.752 116.647 11.368 115.665 11.368C114.705 11.368 114.087 11.7307 113.809 12.456C113.553 13.1813 113.425 14.504 113.425 16.424C113.425 18.344 113.575 19.688 113.873 20.456C114.172 21.2027 114.812 21.576 115.793 21.576C116.775 21.576 117.393 21.224 117.649 20.52C117.905 19.7947 118.033 18.472 118.033 16.552ZM129.82 11.24C130.14 10.1093 130.673 9.21333 131.42 8.552C132.166 7.89067 133.03 7.56 134.012 7.56C135.014 7.56 135.921 7.76267 136.732 8.168L135.612 12.04C134.95 11.848 134.385 11.752 133.916 11.752C133.084 11.752 132.326 12.0613 131.644 12.68C130.982 13.2987 130.652 14.2053 130.652 15.4V25H125.756V12.936L125.404 8.2L129.116 7.72L129.692 11.24H129.82ZM143.639 7.816H147.959L147.383 11.368H143.639V18.696C143.639 19.784 143.788 20.5413 144.087 20.968C144.386 21.3947 144.898 21.608 145.623 21.608C145.922 21.608 146.53 21.5013 147.447 21.288L148.311 24.136C147.906 24.456 147.244 24.744 146.327 25C145.431 25.256 144.61 25.384 143.863 25.384C141.751 25.384 140.364 24.8507 139.703 23.784C139.063 22.696 138.743 20.9253 138.743 18.472V11.368H136.279L136.727 8.168L138.839 7.88L139.031 4.68L143.639 3.304V7.816ZM157.334 13.352C157.334 12.648 157.185 12.136 156.886 11.816C156.588 11.4747 156.012 11.304 155.158 11.304C154.305 11.304 152.897 11.6133 150.934 12.232L149.558 9.224C150.284 8.81867 151.286 8.44533 152.566 8.104C153.868 7.74133 155.137 7.56 156.374 7.56C157.633 7.56 158.678 7.70933 159.51 8.008C160.364 8.30667 160.972 8.75467 161.334 9.352C161.718 9.928 161.964 10.504 162.07 11.08C162.198 11.656 162.262 12.3813 162.262 13.256V19.272C162.262 20.0613 162.337 20.7013 162.486 21.192C162.657 21.6827 163.009 22.216 163.542 22.792L160.758 25.384C160.268 25.1493 159.788 24.7973 159.318 24.328C158.87 23.8587 158.54 23.4213 158.326 23.016H158.198C156.961 24.5947 155.393 25.384 153.494 25.384C150.422 25.384 148.886 23.7947 148.886 20.616C148.886 18.9307 149.366 17.672 150.326 16.84C151.308 16.008 152.716 15.432 154.55 15.112L157.334 14.632V13.352ZM153.526 20.104C153.526 21.1493 154.081 21.672 155.19 21.672C156.044 21.672 156.769 21.3733 157.366 20.776V17.768C156.001 17.96 155.02 18.2267 154.422 18.568C153.825 18.888 153.526 19.4 153.526 20.104ZM170.213 19.144C170.213 20.1893 170.277 20.9573 170.405 21.448C170.554 21.9387 170.906 22.5253 171.461 23.208L167.941 25.8C166.917 24.712 166.213 23.7627 165.829 22.952C165.466 22.12 165.285 20.8827 165.285 19.24V1.384L170.213 0.839998V19.144Z" fill="white"/>
</svg>
