<svg width="33" height="27" viewBox="0 0 33 27" fill="none" xmlns="http://www.w3.org/2000/svg">
<path d="M32.4612 3.92291C31.2903 4.44174 30.0325 4.7923 28.7102 4.95075C30.0746 4.13436 31.0953 2.84944 31.582 1.33576C30.3001 2.09717 28.8972 2.63311 27.4341 2.9203C26.4503 1.86983 25.1472 1.17356 23.7271 0.93959C22.3069 0.705622 20.8493 0.947046 19.5805 1.62638C18.3116 2.30572 17.3026 3.38495 16.71 4.69653C16.1173 6.00811 15.9743 7.47866 16.3031 8.87985C13.7057 8.74944 11.1647 8.07433 8.84514 6.89834C6.52554 5.72236 4.47913 4.07177 2.83872 2.05371C2.27782 3.02126 1.9553 4.14306 1.9553 5.33777C1.95468 6.41329 2.21953 7.47233 2.72637 8.42094C3.23321 9.36955 3.96635 10.1784 4.86076 10.7757C3.82348 10.7427 2.80909 10.4624 1.90202 9.95818V10.0423C1.90191 11.5508 2.4237 13.0128 3.37884 14.1803C4.33398 15.3479 5.66365 16.149 7.14222 16.4478C6.17997 16.7082 5.17113 16.7466 4.19189 16.56C4.60905 17.8579 5.42165 18.9929 6.51593 19.8061C7.6102 20.6192 8.93137 21.0698 10.2945 21.0948C7.98053 22.9113 5.12282 23.8966 2.18106 23.8923C1.65996 23.8925 1.1393 23.862 0.621765 23.8012C3.60782 25.7211 7.0838 26.74 10.6338 26.7361C22.6511 26.7361 29.2206 16.7829 29.2206 8.15068C29.2206 7.87023 29.2136 7.58698 29.201 7.30653C30.4788 6.38241 31.5819 5.23807 32.4584 3.92711L32.4612 3.92291Z" fill="#F8F8F8"/>
</svg>
